<svg xmlns="http://www.w3.org/2000/svg" viewBox="0 160 1600 540" preserveAspectRatio="xMidYMax slice">
  <defs>
    <linearGradient id="bg" x1="0" y1="0" x2="0.3" y2="1">
      <stop offset="0" stop-color="#F5A623"/>
      <stop offset="1" stop-color="#E86A00"/>
    </linearGradient>
    <symbol id="pljTruck" viewBox="0 0 280 170" width="280" height="170">
      <rect x="84" y="46" width="182" height="8" fill="#0A0A0A"/>
      <rect x="92" y="46" width="8" height="62" fill="#0A0A0A"/>
      <rect x="122" y="46" width="8" height="62" fill="#0A0A0A"/>
      <rect x="152" y="46" width="8" height="62" fill="#0A0A0A"/>
      <rect x="182" y="46" width="8" height="62" fill="#0A0A0A"/>
      <rect x="212" y="46" width="8" height="62" fill="#0A0A0A"/>
      <rect x="242" y="46" width="8" height="62" fill="#0A0A0A"/>
      <rect x="80" y="108" width="190" height="12" fill="#0A0A0A"/>
      <rect x="80" y="118" width="26" height="18" fill="#0A0A0A"/>
      <rect x="8" y="70" width="72" height="66" rx="8" fill="#0A0A0A"/>
      <rect x="22" y="82" width="30" height="26" rx="3" fill="#E86A00"/>
      <circle cx="50" cy="140" r="24" fill="#0A0A0A"/>
      <circle cx="50" cy="140" r="9" fill="#F5C518"/>
      <circle cx="222" cy="140" r="24" fill="#0A0A0A"/>
      <circle cx="222" cy="140" r="9" fill="#F5C518"/>
      <circle cx="254" cy="140" r="24" fill="#0A0A0A"/>
      <circle cx="254" cy="140" r="9" fill="#F5C518"/>
    </symbol>
  </defs>
  <rect width="1600" height="700" fill="url(#bg)"/>
  <rect y="560" width="1600" height="140" fill="#0A0A0A"/>
  <line x1="0" y1="600" x2="1600" y2="600" stroke="#F5C518" stroke-width="14" stroke-dasharray="70 60"/>
  <g transform="translate(70,271) scale(1.7)">
    <use href="#pljTruck"/>
  </g>
  <g transform="translate(590,271) scale(1.7)">
    <use href="#pljTruck"/>
  </g>
  <g transform="translate(1110,271) scale(1.7)">
    <use href="#pljTruck"/>
  </g>
</svg>
